<svg xmlns="http://www.w3.org/2000/svg" xmlns:xlink="http://www.w3.org/1999/xlink" width="1440" height="800"><g transform="translate(0 0)"><path d="M0 0h1440v800H0z" fill="#f2f2f2"/><path d="M174.26 613V420" stroke="#3d4752" stroke-width="2" fill="none"/><path d="M178.9 434.27h-9.28l4.64-14.27z" fill="#3d4752"/><path d="M180.27 435.27h-12.02L173.2 420h2.1zm-9.27-2h6.52l-3.26-10.03z" fill="#3d4752"/><path fill="#f2f2f2" d="M88.4 498.5h171.7v36H88.4z"/><use xlink:href="#a" transform="matrix(1,0,0,1,88.40899999999999,498.5) translate(0.0049999999999954525 14.112)"/><use xlink:href="#b" transform="matrix(1,0,0,1,88.40899999999999,498.5) translate(93.85699999999999 14.112)"/><use xlink:href="#c" transform="matrix(1,0,0,1,88.40899999999999,498.5) translate(113.87299999999999 14.112)"/><use xlink:href="#d" transform="matrix(1,0,0,1,88.40899999999999,498.5) translate(20.560999999999993 32.112)"/><use xlink:href="#e" transform="matrix(1,0,0,1,88.40899999999999,498.5) translate(99.31099999999999 32.112)"/><path d="M174.26 356V155.2h261" stroke="#3d4752" stroke-width="2" fill="none"/><path d="M435.26 155.2L421 159.84v-9.27z" fill="#3d4752"/><path d="M435.26 154.15v2.1L420 161.23V149.2zm-13.27 4.3L432 155.2 422 151.95z" fill="#3d4752"/><path fill="#f2f2f2" d="M113.4 146.2h134.58v18h-134.6z"/><use xlink:href="#f" transform="matrix(1,0,0,1,113.38551862862087,146.20481927710847) translate(0 14.112)"/><use xlink:href="#e" transform="matrix(1,0,0,1,113.38551862862087,146.20481927710847) translate(82.746 14.112)"/><path d="M615.82 94c6.76 0 12.24 5.48 12.24 12.24v97.93c0 6.76-5.48 12.24-12.24 12.24H447.5c-6.76 0-12.24-5.47-12.24-12.23v-97.93c0-6.76 5.48-12.24 12.24-12.24z" stroke="#f78c20" stroke-width="2" fill="#fff"/><path d="M435.26 139h192.8" stroke="#f78c20" stroke-width="2" fill="none"/><use xlink:href="#g" transform="matrix(1,0,0,1,454.53999999999996,94.00000000000004) translate(64.99000000000001 27.612000000000002)"/><use xlink:href="#h" transform="matrix(1,0,0,1,454.53999999999996,149.00000000000006) translate(23.851000000000006 25.112000000000002)"/><use xlink:href="#i" transform="matrix(1,0,0,1,454.53999999999996,149.00000000000006) translate(95.32900000000001 25.112000000000002)"/><use xlink:href="#j" transform="matrix(1,0,0,1,454.53999999999996,149.00000000000006) translate(38.629000000000005 43.112)"/><path d="M87.5 613h173.52v64H87.5z" stroke="#f78c20" stroke-width="2" fill="#fff"/><use xlink:href="#k" transform="matrix(1,0,0,1,107.5,613) translate(28.129000000000005 37.112)"/><path d="M87.5 356h173.52v64H87.5z" stroke="#f78c20" stroke-width="2" fill="#fff"/><use xlink:href="#l" transform="matrix(1,0,0,1,107.5,356) translate(31.48600000000001 37.112)"/><path d="M531.66 216.4v69.8h-.16V356" stroke="#3d4752" stroke-width="2" fill="none"/><path d="M531.5 356l-4.64-14.27h9.28z" fill="#3d4752"/><path d="M531.5 359.24l-1.05-3.24h2.1zm1.05-3.24h-2.1l-4.96-15.27h12zm-4.3-13.27l3.25 10.03 3.26-10.03z" fill="#3d4752"/><path fill="#f2f2f2" d="M464.3 277.2h134.58v18h-134.6z"/><use xlink:href="#f" transform="matrix(1,0,0,1,464.2869999999999,277.2048192771084) translate(0 14.112)"/><use xlink:href="#e" transform="matrix(1,0,0,1,464.2869999999999,277.2048192771084) translate(82.746 14.112)"/><path d="M647.18 356H415.82v64h231.36" stroke="#f78c20" stroke-width="2" fill="#fff"/><path d="M462.1 356v64" stroke="#f78c20" stroke-width="2" fill="none"/><path d="M415.82 356h231.36v64H415.82z" fill="none"/><use xlink:href="#g" transform="matrix(1,0,0,1,427.38800000000003,368.8) translate(-0.509999999999998 24.612000000000002)"/><use xlink:href="#f" transform="matrix(1,0,0,1,473.66,368.8) translate(12.212999999999994 24.612000000000002)"/><use xlink:href="#m" transform="matrix(1,0,0,1,473.66,368.8) translate(94.95899999999999 24.612000000000002)"/><path d="M629.06 141.75h154.08" stroke="#3d4752" stroke-width="2" fill="none"/><path d="M629.06 142.75h-1v-2h1zM783.14 141.75l-14.27 4.64v-9.28z" fill="#3d4752"/><path d="M769.87 145l10.03-3.25-10.03-3.26zm-2-9.26l15.27 4.96 3.24 1.05-3.24 1.05-15.27 4.96z" fill="#3d4752"/><path fill="#f2f2f2" d="M657.17 132.75h97.87v18h-97.87z"/><use xlink:href="#n" transform="matrix(1,0,0,1,657.1669999999999,132.75311000097952) translate(0 14.112)"/><use xlink:href="#o" transform="matrix(1,0,0,1,657.1669999999999,132.75311000097952) translate(69.858 14.112)"/><path d="M1014.5 110H783.14v63.5h231.36" stroke="#f78c20" stroke-width="2" fill="#fff"/><path d="M829.4 110v63.5" stroke="#f78c20" stroke-width="2" fill="none"/><path d="M783.14 110h231.36v63.5H783.14z" fill="none"/><use xlink:href="#p" transform="matrix(1,0,0,1,794.708,122.7012440003918) translate(-0.509999999999998 24.612000000000002)"/><use xlink:href="#q" transform="matrix(1,0,0,1,840.98,122.7012440003918) translate(21.060000000000002 24.612000000000002)"/><use xlink:href="#r" transform="matrix(1,0,0,1,840.98,122.7012440003918) translate(67.08599999999998 24.612000000000002)"/><path d="M531.5 420v163.6" stroke="#3d4752" stroke-width="2" fill="none"/><path d="M532.5 420h-2v-3h2zM531.5 583.6l-4.64-14.28h9.28z" fill="#3d4752"/><path d="M532.55 583.6h-2.1l-4.96-15.28h12zm-4.3-13.28l3.25 10.03 3.26-10.03z" fill="#3d4752"/><path fill="#f2f2f2" d="M476.5 461.2h110v18h-110z"/><use xlink:href="#s" transform="matrix(1,0,0,1,476.492,461.1997758620934) translate(0 14.112)"/><path d="M606.26 583.6c6.76 0 12.24 5.47 12.24 12.23v97.93c0 6.76-5.48 12.24-12.24 12.24H456.74c-6.76 0-12.24-5.48-12.24-12.24v-97.93c0-6.76 5.48-12.24 12.24-12.24z" stroke="#f78c20" stroke-width="2" fill="#fff"/><path d="M444.5 628.6h174" stroke="#f78c20" stroke-width="2" fill="none"/><use xlink:href="#t" transform="matrix(1,0,0,1,461.9,583.5903614457831) translate(57.49 27.612000000000002)"/><use xlink:href="#u" transform="matrix(1,0,0,1,461.9,638.5903614457831) translate(7.567000000000007 34.112)"/><use xlink:href="#r" transform="matrix(1,0,0,1,461.9,638.5903614457831) translate(58.579 34.112)"/><path d="M261.02 388h91.74v256.8h91.74" stroke="#3d4752" stroke-width="2" fill="none"/><path d="M444.5 644.8l-14.27 4.63v-9.27z" fill="#3d4752"/><path d="M444.5 643.74v2.1l-15.27 4.97V638.8zm-13.27 4.3l10.03-3.24-10.03-3.26z" fill="#3d4752"/><path fill="#f2f2f2" d="M308.34 498.4h88.85v36h-88.86z"/><use xlink:href="#v" transform="matrix(1,0,0,1,308.336,498.39759036144574) translate(0.005000000000002558 14.112)"/><use xlink:href="#w" transform="matrix(1,0,0,1,308.336,498.39759036144574) translate(5.503999999999998 32.112)"/><use xlink:href="#x" transform="matrix(1,0,0,1,308.336,498.39759036144574) translate(25.519999999999996 32.112)"/><path d="M593.9 582.6V524h208.23V174.5" stroke="#3d4752" stroke-width="2" fill="none"/><path d="M594.9 583.6h-2v-1h2zM806.76 188.77h-9.27l4.63-14.26z" fill="#3d4752"/><path d="M808.14 189.77h-12.02l5.28-16.26h1.46zm-9.27-2h6.52l-3.27-10.03zm4-14.26h-1.47l.73-2.23z" fill="#3d4752"/><path fill="#f2f2f2" d="M680.34 506h68.02v36h-68.02z"/><use xlink:href="#y" transform="matrix(1,0,0,1,680.3442746515841,506) translate(0.005000000000002558 14.112)"/><use xlink:href="#z" transform="matrix(1,0,0,1,680.3442746515841,506) translate(1.5889999999999986 32.112)"/><path d="M898.82 173.5V330.18" stroke="#3d4752" stroke-width="2" fill="none"/><path d="M899.82 173.5h-2v-3h2zM898.82 330.17l-4.64-14.27h9.28z" fill="#3d4752"/><path d="M899.55 331.17h-1.46l-5.3-16.27h12.03zm-4-14.27l3.27 10.03 3.26-10.03z" fill="#3d4752"/><path d="M1002.26 331.17c6.76 0 12.24 5.48 12.24 12.24v97.94c0 6.76-5.48 12.24-12.24 12.24H852.74c-6.76 0-12.24-5.48-12.24-12.24V343.4c0-6.75 5.48-12.23 12.24-12.23z" stroke="#f78c20" stroke-width="2" fill="#fff"/><path d="M840.5 376.17h174" stroke="#f78c20" stroke-width="2" fill="none"/><use xlink:href="#p" transform="matrix(1,0,0,1,857.9000000000001,331.16867469879514) translate(57.49 27.612000000000002)"/><use xlink:href="#A" transform="matrix(1,0,0,1,857.9000000000001,386.16867469879514) translate(3.571000000000012 25.112000000000002)"/><use xlink:href="#B" transform="matrix(1,0,0,1,857.9000000000001,386.16867469879514) translate(66.40899999999999 25.112000000000002)"/><use xlink:href="#C" transform="matrix(1,0,0,1,857.9000000000001,386.16867469879514) translate(3.841000000000008 43.112)"/><use xlink:href="#D" transform="matrix(1,0,0,1,857.9000000000001,386.16867469879514) translate(38.86900000000001 43.112)"/><path d="M618.5 644.8h111.24v.2h111.24" stroke="#3d4752" stroke-width="2" fill="none"/><path d="M840.98 645l-14.27 4.64v-9.28z" fill="#3d4752"/><path d="M840.98 643.95v2.1L825.7 651v-12zm-13.27 4.3l10.04-3.25-10.03-3.26z" fill="#3d4752"/><path fill="#f2f2f2" d="M685.32 626.9h88.85v36h-88.85z"/><use xlink:href="#v" transform="matrix(1,0,0,1,685.316,626.8975903614457) translate(0.005000000000002558 14.112)"/><use xlink:href="#w" transform="matrix(1,0,0,1,685.316,626.8975903614457) translate(5.503999999999998 32.112)"/><use xlink:href="#x" transform="matrix(1,0,0,1,685.316,626.8975903614457) translate(25.519999999999996 32.112)"/><path d="M840.98 609h173.52v72H840.98z" stroke="#f78c20" stroke-width="2" fill="#fff"/><use xlink:href="#k" transform="matrix(1,0,0,1,860.98,609) translate(28.129000000000005 41.112)"/><path d="M1178.98 110h173.52v64h-173.52z" stroke="#f78c20" stroke-width="2" fill="#fff"/><use xlink:href="#E" transform="matrix(1,0,0,1,1198.98,110) translate(29.353 37.112)"/><path d="M1265.74 174v90H960.72v66.17" stroke="#3d4752" stroke-width="2" fill="none"/><path d="M960.72 330.17l-4.64-14.27h9.27z" fill="#3d4752"/><path d="M961.44 331.17H960l-5.3-16.27h12.03zm-3.98-14.27l3.26 10.03 3.26-10.03z" fill="#3d4752"/><path fill="#f2f2f2" d="M1079.17 246h91.94v36h-91.93z"/><use xlink:href="#F" transform="matrix(1,0,0,1,1079.1720186229347,246) translate(4.955000000000005 14.112)"/><use xlink:href="#G" transform="matrix(1,0,0,1,1079.1720186229347,246) translate(71.987 14.112)"/><use xlink:href="#H" transform="matrix(1,0,0,1,1079.1720186229347,246) translate(0.005000000000002558 32.112)"/><use xlink:href="#I" transform="matrix(1,0,0,1,1079.1720186229347,246) translate(56.471 32.112)"/><path d="M898.82 330.17V173.5" stroke="#3d4752" stroke-width="2" fill="none"/><path d="M899.82 331.17h-2v-1h2zM903.46 187.77h-9.28l4.64-14.26z" fill="#3d4752"/><path d="M904.83 188.77H892.8l4.97-15.26h2.1zm-9.27-2h6.52l-3.26-10.03zm4.3-13.26h-2.1l1.06-3.23z" fill="#3d4752"/><path fill="#f2f2f2" d="M862.8 224.3h72.04v36H862.8z"/><g><use xlink:href="#F" transform="matrix(1,0,0,1,862.8019999999999,224.29725496080056) translate(0.005000000000002558 14.112)"/><use xlink:href="#J" transform="matrix(1,0,0,1,862.8019999999999,224.29725496080056) translate(67.03699999999998 14.112)"/><use xlink:href="#K" transform="matrix(1,0,0,1,862.8019999999999,224.29725496080056) translate(3.5060000000000002 32.112)"/></g><path d="M1014.5 392.37h82.24V388h82.24" stroke="#3d4752" stroke-width="2" fill="none"/><path d="M1178.98 388l-14.27 4.64v-9.28z" fill="#3d4752"/><path d="M1178.98 386.95v2.1L1163.7 394v-12zm-13.27 4.3l10.04-3.25-10.03-3.26z" fill="#3d4752"/><path fill="#f2f2f2" d="M1060.72 372.2h72.04v36h-72.04z"/><g><use xlink:href="#F" transform="matrix(1,0,0,1,1060.722,372.1867469879517) translate(0.005000000000002558 14.112)"/><use xlink:href="#J" transform="matrix(1,0,0,1,1060.722,372.1867469879517) translate(67.03699999999998 14.112)"/><use xlink:href="#K" transform="matrix(1,0,0,1,1060.722,372.1867469879517) translate(3.5060000000000002 32.112)"/></g><path d="M1178.98 356h173.52v64h-173.52z" stroke="#f78c20" stroke-width="2" fill="#fff"/><g><use xlink:href="#L" transform="matrix(1,0,0,1,1198.98,356) translate(45.958 37.112)"/></g><path d="M1014.5 645h251.24V420" fill="none"/><path d="M1014.5 645h9.92m9.92 0h19.85m9.9 0h19.85m9.92 0h19.85m9.92 0h19.84m9.92 0h19.85m9.92 0H1203m9.93 0h19.85m9.92 0h19.84m3.2-6.72v-19.85m0-9.92v-19.83m0-9.92V558.9m0-9.92v-19.84m0-9.92v-19.85m0-9.92V469.6m0-9.9v-19.86m0-9.92V420" stroke="#3d4752" stroke-width="2" fill="none"/><path d="M1270.38 434.27h-9.28l4.64-14.27z" fill="#3d4752"/><path d="M1271.75 435.27h-12.02l4.96-15.27h2.1zm-9.27-2h6.52l-3.26-10.03z" fill="#3d4752"/><path d="M1265.74 420v225H1014.5" fill="none"/><path d="M1265.74 420v9.92m0 9.92v19.85m0 9.9v19.85m0 9.92v19.85m0 9.92v19.84m0 9.92v19.85m0 9.92v19.84m0 9.93v19.85m-3.2 6.72h-19.84m-9.92 0h-19.85m-9.92 0h-19.83m-9.92 0h-19.85m-9.92 0h-19.84m-9.92 0h-19.85m-9.92 0h-19.84m-9.9 0h-19.86m-9.92 0h-9.92" stroke="#3d4752" stroke-width="2" fill="none"/><path d="M1028.77 649.64L1014.5 645l14.27-4.64z" fill="#3d4752"/><path d="M1029.77 651l-15.27-4.95v-2.1l15.27-4.96zm-12.03-6l10.03 3.26v-6.52z" fill="#3d4752"/><path fill="#f2f2f2" d="M1210.47 627h84.3v36h-84.3z"/><g><use xlink:href="#M" transform="matrix(1,0,0,1,1210.473,627) translate(6.637999999999991 14.112)"/><use xlink:href="#J" transform="matrix(1,0,0,1,1210.473,627) translate(72.66199999999999 14.112)"/><use xlink:href="#N" transform="matrix(1,0,0,1,1210.473,627) translate(0.005000000000002558 32.112)"/></g><defs><path fill="#3d4752" d="M646 0H541L164-591V0H76v-729h101l381 596v-596h88V0" id="O"/><path fill="#3d4752" d="M510-258c0 172-90 273-237 273C124 15 36-86 36-262s89-277 236-277c151 0 238 100 238 281zm-87-1c0-130-56-203-150-203-93 0-150 74-150 200 0 127 57 200 150 200 92 0 150-74 150-197" id="P"/><path fill="#3d4752" d="M254 0C173 20 85 2 85-76v-380H14v-68h71v-144h83v144h86v68h-86v343c-10 55 46 50 86 43V0" id="Q"/><path fill="#3d4752" d="M153 0H70v-524h83V0zm11-603H60v-104h104v104" id="R"/><path fill="#3d4752" d="M258-456h-87V0H88v-456H18v-68h70v-89c-3-92 75-135 170-114v69c-52-6-87 6-87 52v82h87v68" id="S"/><path fill="#3d4752" d="M477-180C467-60 388 15 263 15 121 15 31-88 31-257c0-174 92-282 233-282 117 0 197 63 207 191h-84c-10-73-54-114-124-114-91 0-145 74-145 205 0 124 55 195 147 195 71 0 114-34 128-118h84" id="T"/><path fill="#3d4752" d="M535-2c-69 24-126 0-143-60-46 49-111 77-178 77C108 15 42-41 42-136c0-64 31-111 92-136 32-13 50-16 168-32 77-11 87-22 87-80 0-50-42-78-117-78-78 0-116 29-123 93H65c5-121 83-170 210-170 129 0 197 50 197 143v292c-2 32 28 47 63 39v63zM389-181v-78c-28 13-46 17-134 29-89 13-126 37-126 92 0 57 38 80 103 80 81 0 157-48 157-123" id="U"/><path fill="#3d4752" d="M487 0h-83v-363c0-63-42-103-108-103-85 0-143 70-143 177V0H70v-524h77v88c46-73 96-103 174-103 101 0 166 56 166 143V0" id="V"/><g id="a"><use transform="matrix(0.018,0,0,0.018,0,0)" xlink:href="#O"/><use transform="matrix(0.018,0,0,0.018,12.995999999999999,0)" xlink:href="#P"/><use transform="matrix(0.018,0,0,0.018,22.823999999999998,0)" xlink:href="#Q"/><use transform="matrix(0.018,0,0,0.018,27.827999999999992,0)" xlink:href="#R"/><use transform="matrix(0.018,0,0,0.018,31.823999999999995,0)" xlink:href="#S"/><use transform="matrix(0.018,0,0,0.018,36.827999999999996,0)" xlink:href="#R"/><use transform="matrix(0.018,0,0,0.018,40.824,0)" xlink:href="#T"/><use transform="matrix(0.018,0,0,0.018,49.824,0)" xlink:href="#U"/><use transform="matrix(0.018,0,0,0.018,59.831999999999994,0)" xlink:href="#Q"/><use transform="matrix(0.018,0,0,0.018,64.836,0)" xlink:href="#R"/><use transform="matrix(0.018,0,0,0.018,68.832,0)" xlink:href="#P"/><use transform="matrix(0.018,0,0,0.018,78.83999999999999,0)" xlink:href="#V"/></g><g id="b"><use transform="matrix(0.018,0,0,0.018,0,0)" xlink:href="#P"/><use transform="matrix(0.018,0,0,0.018,10.008,0)" xlink:href="#S"/></g><path fill="#3d4752" d="M151 0H68v-729h83V0" id="W"/><path fill="#3d4752" d="M459-147c0 101-84 162-216 162C106 15 38-39 34-160h88c11 80 53 98 128 98 73 0 122-29 122-78 0-63-103-74-159-88C89-260 47-297 47-379c0-97 79-160 201-160 121 0 189 58 190 161h-88c-2-55-38-84-105-84-68 0-111 31-111 79 0 37 29 59 97 75l80 19c104 25 148 64 148 142" id="X"/><path fill="#3d4752" d="M482 0h-75v-81c-49 69-98 96-175 96C130 15 65-41 65-128v-396h83v363c0 63 42 103 108 103 87 0 143-70 143-177v-289h83V0" id="Y"/><path fill="#3d4752" d="M321-451c-129 2-168 61-168 179V0H70v-524h76v95c59-88 90-119 175-107v85" id="Z"/><path fill="#3d4752" d="M513-238H127c2 120 67 176 154 176 67 0 114-28 137-97h84C481-53 398 15 278 15 131 15 40-87 40-259s94-280 240-280c156 0 245 109 233 301zm-90-68c5-85-61-156-144-156-84 0-143 63-150 156h294" id="aa"/><g id="c"><use transform="matrix(0.018,0,0,0.018,0,0)" xlink:href="#T"/><use transform="matrix(0.018,0,0,0.018,9,0)" xlink:href="#W"/><use transform="matrix(0.018,0,0,0.018,12.995999999999999,0)" xlink:href="#P"/><use transform="matrix(0.018,0,0,0.018,23.003999999999998,0)" xlink:href="#X"/><use transform="matrix(0.018,0,0,0.018,32.004,0)" xlink:href="#Y"/><use transform="matrix(0.018,0,0,0.018,42.01199999999999,0)" xlink:href="#Z"/><use transform="matrix(0.018,0,0,0.018,47.82600000000001,0)" xlink:href="#aa"/></g><path fill="#3d4752" d="M760 0h-83v-361c0-66-35-105-96-105-68 0-124 61-124 137V0h-83v-361c0-67-35-105-97-105-68 0-123 61-123 137V0H71v-524h76v74c45-63 91-89 161-89 68 0 110 24 141 80 49-59 91-80 161-80 98 0 150 52 150 146V0" id="ab"/><g id="d"><use transform="matrix(0.018,0,0,0.018,0,0)" xlink:href="#T"/><use transform="matrix(0.018,0,0,0.018,9,0)" xlink:href="#Y"/><use transform="matrix(0.018,0,0,0.018,19.008,0)" xlink:href="#X"/><use transform="matrix(0.018,0,0,0.018,27.918,0)" xlink:href="#Q"/><use transform="matrix(0.018,0,0,0.018,32.742,0)" xlink:href="#P"/><use transform="matrix(0.018,0,0,0.018,42.75,0)" xlink:href="#ab"/><use transform="matrix(0.018,0,0,0.018,57.74400000000001,0)" xlink:href="#aa"/><use transform="matrix(0.018,0,0,0.018,67.752,0)" xlink:href="#Z"/></g><path fill="#3d4752" d="M495 0h-74v-77c-45 65-95 92-167 92C113 15 26-90 26-267c0-167 89-272 225-272 70 0 126 28 161 81v-271h83V0zm-83-260c0-121-57-201-147-201-91 0-152 77-152 199S174-63 266-63c88 0 146-76 146-197" id="ac"/><g id="e"><use transform="matrix(0.018,0,0,0.018,0,0)" xlink:href="#ac"/><use transform="matrix(0.018,0,0,0.018,10.008,0)" xlink:href="#aa"/><use transform="matrix(0.018,0,0,0.018,19.836,0)" xlink:href="#Q"/><use transform="matrix(0.018,0,0,0.018,24.84,0)" xlink:href="#U"/><use transform="matrix(0.018,0,0,0.018,34.848,0)" xlink:href="#R"/><use transform="matrix(0.018,0,0,0.018,38.84400000000001,0)" xlink:href="#W"/><use transform="matrix(0.018,0,0,0.018,42.84,0)" xlink:href="#X"/></g><path fill="#3d4752" d="M677-266C655-76 555 18 377 18 163 18 48-143 48-356s112-391 333-391c160 0 252 84 281 244h-95c-23-111-83-162-197-162-141 0-229 121-229 308 0 182 92 293 237 293 123 0 181-64 203-202h96" id="ad"/><g id="f"><use transform="matrix(0.018,0,0,0.018,0,0)" xlink:href="#ad"/><use transform="matrix(0.018,0,0,0.018,12.995999999999999,0)" xlink:href="#Y"/><use transform="matrix(0.018,0,0,0.018,23.003999999999998,0)" xlink:href="#X"/><use transform="matrix(0.018,0,0,0.018,31.913999999999998,0)" xlink:href="#Q"/><use transform="matrix(0.018,0,0,0.018,36.738,0)" xlink:href="#P"/><use transform="matrix(0.018,0,0,0.018,46.745999999999995,0)" xlink:href="#ab"/><use transform="matrix(0.018,0,0,0.018,61.739999999999995,0)" xlink:href="#aa"/><use transform="matrix(0.018,0,0,0.018,71.74799999999999,0)" xlink:href="#Z"/></g><path fill="#3d4752" d="M347 0h-88v-505H102v-63c136-17 156-32 187-141h58V0" id="ae"/><path fill="#3d4752" d="M191 0H87v-104h104V0" id="af"/><path fill="#3d4752" d="M507-341c0 233-82 356-232 356C123 15 43-108 43-347c0-238 79-362 232-362 154 0 232 122 232 368zm-90-8c0-190-47-282-142-282s-142 91-142 285S180-58 273-58c98 0 144-90 144-291" id="ag"/><g id="g"><use transform="matrix(0.018,0,0,0.018,0,0)" xlink:href="#ae"/><use transform="matrix(0.018,0,0,0.018,10.008,0)" xlink:href="#af"/><use transform="matrix(0.018,0,0,0.018,15.011999999999999,0)" xlink:href="#ag"/></g><path fill="#3d4752" d="M679 0H566c-22-45-22-117-20-184 2-90-38-130-120-130H186V0H93v-729h336c143 0 222 69 222 195 0 83-33 134-115 174 79 34 97 70 99 190 1 97 9 123 44 147V0zM554-521c0-82-39-126-143-126H186v251h225c99 0 143-39 143-125" id="ah"/><path fill="#3d4752" d="M489-86c0 231-70 304-234 304-123 0-200-59-209-158h85c10 64 61 88 127 88 108 0 163-76 154-227-55 66-101 94-167 94C122 15 29-92 29-257c0-170 90-282 223-282 67 0 118 29 160 91v-76h77v438zm-85-173c0-127-53-203-143-203-89 0-145 74-145 200 0 127 55 200 146 200 88 0 142-72 142-197" id="ai"/><g id="h"><use transform="matrix(0.018,0,0,0.018,0,0)" xlink:href="#ah"/><use transform="matrix(0.018,0,0,0.018,12.815999999999999,0)" xlink:href="#aa"/><use transform="matrix(0.018,0,0,0.018,22.823999999999998,0)" xlink:href="#ai"/><use transform="matrix(0.018,0,0,0.018,32.831999999999994,0)" xlink:href="#R"/><use transform="matrix(0.018,0,0,0.018,36.827999999999996,0)" xlink:href="#X"/><use transform="matrix(0.018,0,0,0.018,45.737999999999985,0)" xlink:href="#Q"/><use transform="matrix(0.018,0,0,0.018,50.47199999999999,0)" xlink:href="#aa"/><use transform="matrix(0.018,0,0,0.018,60.47999999999999,0)" xlink:href="#Z"/></g><path fill="#3d4752" d="M708-524L554 0h-95L353-411 252 0h-94L6-524h92l107 408 100-408h102l103 408 104-408h94" id="aj"/><g id="i"><use transform="matrix(0.018,0,0,0.018,0,0)" xlink:href="#O"/><use transform="matrix(0.018,0,0,0.018,12.995999999999999,0)" xlink:href="#aa"/><use transform="matrix(0.018,0,0,0.018,22.823999999999998,0)" xlink:href="#aj"/></g><g id="j"><use transform="matrix(0.018,0,0,0.018,0,0)" xlink:href="#ad"/><use transform="matrix(0.018,0,0,0.018,12.995999999999999,0)" xlink:href="#Y"/><use transform="matrix(0.018,0,0,0.018,23.003999999999998,0)" xlink:href="#X"/><use transform="matrix(0.018,0,0,0.018,31.913999999999998,0)" xlink:href="#Q"/><use transform="matrix(0.018,0,0,0.018,36.738,0)" xlink:href="#P"/><use transform="matrix(0.018,0,0,0.018,46.745999999999995,0)" xlink:href="#ab"/><use transform="matrix(0.018,0,0,0.018,61.739999999999995,0)" xlink:href="#aa"/><use transform="matrix(0.018,0,0,0.018,71.74799999999999,0)" xlink:href="#Z"/></g><g id="k"><use transform="matrix(0.018,0,0,0.018,0,0)" xlink:href="#ad"/><use transform="matrix(0.018,0,0,0.018,12.995999999999999,0)" xlink:href="#Y"/><use transform="matrix(0.018,0,0,0.018,23.003999999999998,0)" xlink:href="#X"/><use transform="matrix(0.018,0,0,0.018,31.913999999999998,0)" xlink:href="#Q"/><use transform="matrix(0.018,0,0,0.018,36.738,0)" xlink:href="#P"/><use transform="matrix(0.018,0,0,0.018,46.745999999999995,0)" xlink:href="#ab"/><use transform="matrix(0.018,0,0,0.018,61.739999999999995,0)" xlink:href="#aa"/><use transform="matrix(0.018,0,0,0.018,71.74799999999999,0)" xlink:href="#Z"/></g><path fill="#3d4752" d="M761 0h-88v-611L468 0h-98L163-611V0H75v-729h129L420-94l212-635h129V0" id="ak"/><g id="l"><use transform="matrix(0.018,0,0,0.018,0,0)" xlink:href="#ak"/><use transform="matrix(0.018,0,0,0.018,14.993999999999998,0)" xlink:href="#U"/><use transform="matrix(0.018,0,0,0.018,25.001999999999995,0)" xlink:href="#V"/><use transform="matrix(0.018,0,0,0.018,35.00999999999999,0)" xlink:href="#U"/><use transform="matrix(0.018,0,0,0.018,45.01799999999999,0)" xlink:href="#ai"/><use transform="matrix(0.018,0,0,0.018,55.02599999999998,0)" xlink:href="#aa"/><use transform="matrix(0.018,0,0,0.018,65.03399999999998,0)" xlink:href="#Z"/></g><path fill="#3d4752" d="M667-365C667-138 554 0 370 0H89v-729h281c185 0 297 138 297 364zm-93 1c0-186-76-283-220-283H182v565h172c144 0 220-98 220-282" id="al"/><g id="m"><use transform="matrix(0.018,0,0,0.018,0,0)" xlink:href="#al"/><use transform="matrix(0.018,0,0,0.018,12.995999999999999,0)" xlink:href="#aa"/><use transform="matrix(0.018,0,0,0.018,22.823999999999998,0)" xlink:href="#Q"/><use transform="matrix(0.018,0,0,0.018,27.827999999999992,0)" xlink:href="#U"/><use transform="matrix(0.018,0,0,0.018,37.836,0)" xlink:href="#R"/><use transform="matrix(0.018,0,0,0.018,41.831999999999994,0)" xlink:href="#W"/><use transform="matrix(0.018,0,0,0.018,45.828,0)" xlink:href="#X"/></g><path fill="#3d4752" d="M653 0H549l-75-219H193L116 0H17l260-729h120zM448-297L336-629 216-297h232" id="am"/><g id="n"><use transform="matrix(0.018,0,0,0.018,0,0)" xlink:href="#am"/><use transform="matrix(0.018,0,0,0.018,11.825999999999999,0)" xlink:href="#T"/><use transform="matrix(0.018,0,0,0.018,20.826000000000004,0)" xlink:href="#T"/><use transform="matrix(0.018,0,0,0.018,29.826,0)" xlink:href="#P"/><use transform="matrix(0.018,0,0,0.018,39.834,0)" xlink:href="#Y"/><use transform="matrix(0.018,0,0,0.018,49.842,0)" xlink:href="#V"/><use transform="matrix(0.018,0,0,0.018,59.849999999999994,0)" xlink:href="#Q"/></g><g id="o"><use transform="matrix(0.018,0,0,0.018,0,0)" xlink:href="#O"/><use transform="matrix(0.018,0,0,0.018,12.995999999999999,0)" xlink:href="#P"/><use transform="matrix(0.018,0,0,0.018,23.003999999999998,0)" xlink:href="#af"/></g><path fill="#3d4752" d="M511-501c0 87-51 161-150 214l-100 54c-87 51-119 88-128 146h373V0H34c8-156 51-224 199-307 72-40 188-97 188-192 0-76-60-133-140-133-87 0-136 50-143 169H50c5-172 89-246 234-246 134 0 227 88 227 208" id="an"/><g id="p"><use transform="matrix(0.018,0,0,0.018,0,0)" xlink:href="#an"/><use transform="matrix(0.018,0,0,0.018,10.008,0)" xlink:href="#af"/><use transform="matrix(0.018,0,0,0.018,15.011999999999999,0)" xlink:href="#ag"/></g><path fill="#3d4752" d="M623-208C623-88 539 0 408 0H79v-729h296c138 0 216 79 216 185 0 74-35 128-101 159 93 36 133 89 133 177zM498-531c0-74-43-116-146-116H172v232h180c103 0 146-42 146-116zm32 324c0-71-43-126-131-126H172v251h227c88 0 131-55 131-125" id="ao"/><path fill="#3d4752" d="M502 0H399L222-284l-81 80V0H58v-729h83v427l222-222h107L288-343" id="ap"/><g id="q"><use transform="matrix(0.018,0,0,0.018,0,0)" xlink:href="#ao"/><use transform="matrix(0.018,0,0,0.018,12.005999999999998,0)" xlink:href="#U"/><use transform="matrix(0.018,0,0,0.018,22.013999999999996,0)" xlink:href="#V"/><use transform="matrix(0.018,0,0,0.018,32.02199999999999,0)" xlink:href="#ap"/></g><g id="r"><use transform="matrix(0.018,0,0,0.018,0,0)" xlink:href="#am"/><use transform="matrix(0.018,0,0,0.018,11.825999999999999,0)" xlink:href="#T"/><use transform="matrix(0.018,0,0,0.018,20.826000000000004,0)" xlink:href="#T"/><use transform="matrix(0.018,0,0,0.018,29.826,0)" xlink:href="#P"/><use transform="matrix(0.018,0,0,0.018,39.834,0)" xlink:href="#Y"/><use transform="matrix(0.018,0,0,0.018,49.842,0)" xlink:href="#V"/><use transform="matrix(0.018,0,0,0.018,59.849999999999994,0)" xlink:href="#Q"/><use transform="matrix(0.018,0,0,0.018,64.854,0)" xlink:href="#X"/></g><path fill="#3d4752" d="M613 0H90v-729h505v82H183v233h397v82H183v250h430V0" id="aq"/><path fill="#3d4752" d="M473 0h-97L245-201 112 0H17l185-267L27-524h95l126 190 126-190h94L292-271" id="ar"/><path fill="#3d4752" d="M284-240H46v-72h238v72" id="as"/><g id="s"><use transform="matrix(0.018,0,0,0.018,0,0)" xlink:href="#aq"/><use transform="matrix(0.018,0,0,0.018,12.005999999999998,0)" xlink:href="#ar"/><use transform="matrix(0.018,0,0,0.018,21.005999999999997,0)" xlink:href="#as"/><use transform="matrix(0.018,0,0,0.018,26.999999999999996,0)" xlink:href="#ad"/><use transform="matrix(0.018,0,0,0.018,39.995999999999995,0)" xlink:href="#P"/><use transform="matrix(0.018,0,0,0.018,50.00399999999999,0)" xlink:href="#V"/><use transform="matrix(0.018,0,0,0.018,60.011999999999986,0)" xlink:href="#X"/><use transform="matrix(0.018,0,0,0.018,69.01199999999999,0)" xlink:href="#Y"/><use transform="matrix(0.018,0,0,0.018,79.01999999999998,0)" xlink:href="#ab"/><use transform="matrix(0.018,0,0,0.018,94.01399999999998,0)" xlink:href="#aa"/><use transform="matrix(0.018,0,0,0.018,104.02199999999998,0)" xlink:href="#Z"/></g><path fill="#3d4752" d="M506-206c0 134-94 221-240 221C121 15 43-56 32-214h88c6 103 53 151 149 151 92 0 147-53 147-142 0-95-78-135-195-125v-74c141 0 174-31 174-107 0-75-47-121-125-121-90 0-133 47-135 152H47c3-151 79-229 222-229 135 0 216 73 216 195 0 71-33 117-99 143 85 29 120 79 120 165" id="at"/><g id="t"><use transform="matrix(0.018,0,0,0.018,0,0)" xlink:href="#at"/><use transform="matrix(0.018,0,0,0.018,10.008,0)" xlink:href="#af"/><use transform="matrix(0.018,0,0,0.018,15.011999999999999,0)" xlink:href="#ag"/></g><g id="u"><use transform="matrix(0.018,0,0,0.018,0,0)" xlink:href="#ad"/><use transform="matrix(0.018,0,0,0.018,12.995999999999999,0)" xlink:href="#W"/><use transform="matrix(0.018,0,0,0.018,16.991999999999997,0)" xlink:href="#P"/><use transform="matrix(0.018,0,0,0.018,26.999999999999996,0)" xlink:href="#X"/><use transform="matrix(0.018,0,0,0.018,36,0)" xlink:href="#aa"/></g><g id="v"><use transform="matrix(0.018,0,0,0.018,0,0)" xlink:href="#O"/><use transform="matrix(0.018,0,0,0.018,12.995999999999999,0)" xlink:href="#P"/><use transform="matrix(0.018,0,0,0.018,22.823999999999998,0)" xlink:href="#Q"/><use transform="matrix(0.018,0,0,0.018,27.827999999999992,0)" xlink:href="#R"/><use transform="matrix(0.018,0,0,0.018,31.823999999999995,0)" xlink:href="#S"/><use transform="matrix(0.018,0,0,0.018,36.827999999999996,0)" xlink:href="#R"/><use transform="matrix(0.018,0,0,0.018,40.824,0)" xlink:href="#T"/><use transform="matrix(0.018,0,0,0.018,49.824,0)" xlink:href="#U"/><use transform="matrix(0.018,0,0,0.018,59.831999999999994,0)" xlink:href="#Q"/><use transform="matrix(0.018,0,0,0.018,64.836,0)" xlink:href="#R"/><use transform="matrix(0.018,0,0,0.018,68.832,0)" xlink:href="#P"/><use transform="matrix(0.018,0,0,0.018,78.83999999999999,0)" xlink:href="#V"/></g><g id="w"><use transform="matrix(0.018,0,0,0.018,0,0)" xlink:href="#P"/><use transform="matrix(0.018,0,0,0.018,10.008,0)" xlink:href="#S"/></g><g id="x"><use transform="matrix(0.018,0,0,0.018,0,0)" xlink:href="#T"/><use transform="matrix(0.018,0,0,0.018,9,0)" xlink:href="#W"/><use transform="matrix(0.018,0,0,0.018,12.995999999999999,0)" xlink:href="#P"/><use transform="matrix(0.018,0,0,0.018,23.003999999999998,0)" xlink:href="#X"/><use transform="matrix(0.018,0,0,0.018,32.004,0)" xlink:href="#Y"/><use transform="matrix(0.018,0,0,0.018,42.01199999999999,0)" xlink:href="#Z"/><use transform="matrix(0.018,0,0,0.018,47.82600000000001,0)" xlink:href="#aa"/></g><g id="y"><use transform="matrix(0.018,0,0,0.018,0,0)" xlink:href="#aq"/><use transform="matrix(0.018,0,0,0.018,12.005999999999998,0)" xlink:href="#ar"/><use transform="matrix(0.018,0,0,0.018,21.005999999999997,0)" xlink:href="#as"/><use transform="matrix(0.018,0,0,0.018,26.999999999999996,0)" xlink:href="#ao"/><use transform="matrix(0.018,0,0,0.018,39.006,0)" xlink:href="#U"/><use transform="matrix(0.018,0,0,0.018,49.013999999999996,0)" xlink:href="#V"/><use transform="matrix(0.018,0,0,0.018,59.021999999999984,0)" xlink:href="#ap"/></g><g id="z"><use transform="matrix(0.018,0,0,0.018,0,0)" xlink:href="#am"/><use transform="matrix(0.018,0,0,0.018,11.825999999999999,0)" xlink:href="#T"/><use transform="matrix(0.018,0,0,0.018,20.826000000000004,0)" xlink:href="#T"/><use transform="matrix(0.018,0,0,0.018,29.826,0)" xlink:href="#P"/><use transform="matrix(0.018,0,0,0.018,39.834,0)" xlink:href="#Y"/><use transform="matrix(0.018,0,0,0.018,49.842,0)" xlink:href="#V"/><use transform="matrix(0.018,0,0,0.018,59.849999999999994,0)" xlink:href="#Q"/></g><g id="A"><use transform="matrix(0.018,0,0,0.018,0,0)" xlink:href="#ah"/><use transform="matrix(0.018,0,0,0.018,12.815999999999999,0)" xlink:href="#aa"/><use transform="matrix(0.018,0,0,0.018,22.823999999999998,0)" xlink:href="#T"/><use transform="matrix(0.018,0,0,0.018,31.823999999999998,0)" xlink:href="#P"/><use transform="matrix(0.018,0,0,0.018,41.831999999999994,0)" xlink:href="#Z"/><use transform="matrix(0.018,0,0,0.018,47.82599999999999,0)" xlink:href="#ac"/></g><path fill="#3d4752" d="M523-257c0 167-89 272-224 272-68 0-117-24-161-78v281H55v-742h76v79c39-62 96-94 167-94 139 0 225 106 225 282zm-87-2c0-125-60-202-152-202-88 0-146 80-146 203S196-63 284-63c91 0 152-77 152-196" id="au"/><g id="B"><use transform="matrix(0.018,0,0,0.018,0,0)" xlink:href="#al"/><use transform="matrix(0.018,0,0,0.018,12.995999999999999,0)" xlink:href="#aa"/><use transform="matrix(0.018,0,0,0.018,23.003999999999998,0)" xlink:href="#au"/><use transform="matrix(0.018,0,0,0.018,33.012,0)" xlink:href="#P"/><use transform="matrix(0.018,0,0,0.018,43.019999999999996,0)" xlink:href="#X"/><use transform="matrix(0.018,0,0,0.018,52.019999999999996,0)" xlink:href="#R"/><use transform="matrix(0.018,0,0,0.018,56.016,0)" xlink:href="#Q"/><use transform="matrix(0.018,0,0,0.018,61.019999999999996,0)" xlink:href="#X"/></g><g id="C"><use transform="matrix(0.018,0,0,0.018,0,0)" xlink:href="#U"/><use transform="matrix(0.018,0,0,0.018,10.008,0)" xlink:href="#V"/><use transform="matrix(0.018,0,0,0.018,20.016,0)" xlink:href="#ac"/></g><path fill="#3d4752" d="M929-729L744 0H642L474-599 311 0H209L22-729h104l137 592 162-592h100l166 592 134-592h104" id="av"/><path fill="#3d4752" d="M486 0h-83v-363c0-69-49-103-108-103-86 0-142 70-142 177V0H70v-729h83v277c49-64 94-87 168-87 102 0 165 55 165 143V0" id="aw"/><g id="D"><use transform="matrix(0.018,0,0,0.018,0,0)" xlink:href="#av"/><use transform="matrix(0.018,0,0,0.018,16.991999999999997,0)" xlink:href="#R"/><use transform="matrix(0.018,0,0,0.018,20.987999999999996,0)" xlink:href="#Q"/><use transform="matrix(0.018,0,0,0.018,25.901999999999994,0)" xlink:href="#aw"/><use transform="matrix(0.018,0,0,0.018,35.91,0)" xlink:href="#ac"/><use transform="matrix(0.018,0,0,0.018,45.917999999999985,0)" xlink:href="#Z"/><use transform="matrix(0.018,0,0,0.018,51.82199999999999,0)" xlink:href="#U"/><use transform="matrix(0.018,0,0,0.018,61.55999999999999,0)" xlink:href="#aj"/><use transform="matrix(0.018,0,0,0.018,74.286,0)" xlink:href="#U"/><use transform="matrix(0.018,0,0,0.018,84.29399999999998,0)" xlink:href="#W"/><use transform="matrix(0.018,0,0,0.018,88.28999999999998,0)" xlink:href="#X"/></g><path fill="#3d4752" d="M478-524L245 110c-36 94-104 129-191 95v-75c56 13 91 7 111-45l32-83L20-524h89l134 408 145-408h90" id="ax"/><g id="E"><use transform="matrix(0.018,0,0,0.018,0,0)" xlink:href="#aq"/><use transform="matrix(0.018,0,0,0.018,12.005999999999998,0)" xlink:href="#ab"/><use transform="matrix(0.018,0,0,0.018,27.089999999999996,0)" xlink:href="#au"/><use transform="matrix(0.018,0,0,0.018,37.098,0)" xlink:href="#W"/><use transform="matrix(0.018,0,0,0.018,41.09400000000001,0)" xlink:href="#P"/><use transform="matrix(0.018,0,0,0.018,50.742000000000004,0)" xlink:href="#ax"/><use transform="matrix(0.018,0,0,0.018,59.292,0)" xlink:href="#aa"/><use transform="matrix(0.018,0,0,0.018,69.3,0)" xlink:href="#Z"/></g><g id="F"><use transform="matrix(0.018,0,0,0.018,0,0)" xlink:href="#am"/><use transform="matrix(0.018,0,0,0.018,12.005999999999998,0)" xlink:href="#ab"/><use transform="matrix(0.018,0,0,0.018,26.999999999999996,0)" xlink:href="#P"/><use transform="matrix(0.018,0,0,0.018,37.007999999999996,0)" xlink:href="#Y"/><use transform="matrix(0.018,0,0,0.018,47.01599999999999,0)" xlink:href="#V"/><use transform="matrix(0.018,0,0,0.018,57.02399999999999,0)" xlink:href="#Q"/></g><g id="G"><use transform="matrix(0.018,0,0,0.018,0,0)" xlink:href="#P"/><use transform="matrix(0.018,0,0,0.018,10.008,0)" xlink:href="#S"/></g><path fill="#3d4752" d="M621-200C621-70 521 18 336 18 164 18 48-65 48-237h88c0 104 68 173 206 173 126 0 186-47 186-127 0-115-213-135-315-166-95-29-143-81-143-170 0-132 99-220 259-220 168 0 267 83 267 226h-88c0-95-66-148-182-148-98 0-163 55-163 129 0 56 32 85 120 108l183 49c99 27 155 93 155 183" id="ay"/><g id="H"><use transform="matrix(0.018,0,0,0.018,0,0)" xlink:href="#ay"/><use transform="matrix(0.018,0,0,0.018,12.005999999999998,0)" xlink:href="#U"/><use transform="matrix(0.018,0,0,0.018,22.013999999999996,0)" xlink:href="#W"/><use transform="matrix(0.018,0,0,0.018,26.009999999999994,0)" xlink:href="#U"/><use transform="matrix(0.018,0,0,0.018,36.017999999999994,0)" xlink:href="#Z"/><use transform="matrix(0.018,0,0,0.018,42.461999999999996,0)" xlink:href="#ax"/></g><path fill="#3d4752" d="M617-515c0 121-84 206-204 206H184V0H91v-729h301c144 0 225 77 225 214zm-97-4c0-80-53-128-142-128H184v256h194c89 0 142-48 142-128" id="az"/><g id="I"><use transform="matrix(0.018,0,0,0.018,0,0)" xlink:href="#az"/><use transform="matrix(0.018,0,0,0.018,11.466,0)" xlink:href="#U"/><use transform="matrix(0.018,0,0,0.018,21.473999999999997,0)" xlink:href="#R"/><use transform="matrix(0.018,0,0,0.018,25.469999999999995,0)" xlink:href="#ac"/></g><path fill="#3d4752" d="M284-729L47 20H-8l237-749h55" id="aA"/><use transform="matrix(0.018,0,0,0.018,0,0)" xlink:href="#aA" id="J"/><g id="K"><use transform="matrix(0.018,0,0,0.018,0,0)" xlink:href="#ao"/><use transform="matrix(0.018,0,0,0.018,12.005999999999998,0)" xlink:href="#U"/><use transform="matrix(0.018,0,0,0.018,22.013999999999996,0)" xlink:href="#W"/><use transform="matrix(0.018,0,0,0.018,26.009999999999994,0)" xlink:href="#U"/><use transform="matrix(0.018,0,0,0.018,36.017999999999994,0)" xlink:href="#V"/><use transform="matrix(0.018,0,0,0.018,46.025999999999996,0)" xlink:href="#T"/><use transform="matrix(0.018,0,0,0.018,55.025999999999996,0)" xlink:href="#aa"/></g><g id="L"><use transform="matrix(0.018,0,0,0.018,0,0)" xlink:href="#ad"/><use transform="matrix(0.018,0,0,0.018,12.995999999999999,0)" xlink:href="#W"/><use transform="matrix(0.018,0,0,0.018,16.991999999999997,0)" xlink:href="#aa"/><use transform="matrix(0.018,0,0,0.018,26.999999999999996,0)" xlink:href="#Z"/><use transform="matrix(0.018,0,0,0.018,33.083999999999996,0)" xlink:href="#ap"/></g><g id="M"><use transform="matrix(0.018,0,0,0.018,0,0)" xlink:href="#al"/><use transform="matrix(0.018,0,0,0.018,12.995999999999999,0)" xlink:href="#aa"/><use transform="matrix(0.018,0,0,0.018,23.003999999999998,0)" xlink:href="#au"/><use transform="matrix(0.018,0,0,0.018,33.012,0)" xlink:href="#P"/><use transform="matrix(0.018,0,0,0.018,43.019999999999996,0)" xlink:href="#X"/><use transform="matrix(0.018,0,0,0.018,52.019999999999996,0)" xlink:href="#R"/><use transform="matrix(0.018,0,0,0.018,56.016,0)" xlink:href="#Q"/></g><g id="N"><use transform="matrix(0.018,0,0,0.018,0,0)" xlink:href="#aj"/><use transform="matrix(0.018,0,0,0.018,12.995999999999999,0)" xlink:href="#R"/><use transform="matrix(0.018,0,0,0.018,16.991999999999997,0)" xlink:href="#Q"/><use transform="matrix(0.018,0,0,0.018,21.906,0)" xlink:href="#aw"/><use transform="matrix(0.018,0,0,0.018,31.913999999999998,0)" xlink:href="#ac"/><use transform="matrix(0.018,0,0,0.018,41.922,0)" xlink:href="#Z"/><use transform="matrix(0.018,0,0,0.018,47.82599999999999,0)" xlink:href="#U"/><use transform="matrix(0.018,0,0,0.018,57.56399999999999,0)" xlink:href="#aj"/><use transform="matrix(0.018,0,0,0.018,70.28999999999999,0)" xlink:href="#U"/><use transform="matrix(0.018,0,0,0.018,80.29799999999999,0)" xlink:href="#W"/></g></defs></g></svg>